<?xml version="1.0" encoding="utf-8"?>
<!-- Generator: Adobe Illustrator 24.0.1, SVG Export Plug-In . SVG Version: 6.00 Build 0)  -->
<svg version="1.1" xmlns="http://www.w3.org/2000/svg" xmlns:xlink="http://www.w3.org/1999/xlink" x="0px" y="0px"
	 viewBox="0 0 1127.49 226" enable-background="new 0 0 1127.49 226" xml:space="preserve">
<g id="Layer_1">
</g>
<g id="Layer_2">
	<g>
		<g>
			<g>
				<path fill="#009F83" d="M314.83,181.77c-23.06,0-40.6-5.83-52.62-17.5c-12.01-11.67-18.02-28.14-18.02-49.41
					c0-22.23,6.14-39.56,18.44-51.99c12.29-12.43,30.38-18.64,54.27-18.64c8.15,0,15.5,0.49,22.06,1.45
					c6.56,0.97,12.81,2.42,18.75,4.35v28.59c-5.94-2.21-12.12-3.73-18.54-4.56c-6.42-0.83-13.02-1.24-19.78-1.24
					c-14.36,0-24.82,3.42-31.38,10.25c-6.56,6.84-9.84,17.44-9.84,31.8c0,13.12,3.11,22.82,9.32,29.1
					c6.21,6.29,15.4,9.43,27.55,9.43c8.01,0,15.47-1.1,22.37-3.31v-25.27h-28.79v-20.92h56.76v66.08
					c-4.7,3.04-11.22,5.77-19.58,8.18C337.44,180.56,327.12,181.77,314.83,181.77z"/>
				<path fill="#009F83" d="M382.36,179.7V46.3h98.4v25.69h-65.04v27.96h57.38v26.1h-57.38v27.96h65.04v25.69H382.36z"/>
				<path fill="#009F83" d="M496.7,179.7V46.3h28.59l56.76,79.75V46.3h33.56v133.4h-28.79l-56.76-79.55v79.55H496.7z"/>
				<path fill="#009F83" d="M636.73,179.7V46.3h98.4v25.69h-65.04v27.96h57.38v26.1h-57.38v27.96h65.04v25.69H636.73z"/>
				<path fill="#009F83" d="M751.07,179.7V46.3h66.7c15.74,0,27.34,4.14,34.8,12.43c7.46,8.29,11.19,19.4,11.19,33.35
					c0,8.98-2.28,16.85-6.84,23.61c-4.56,6.77-10.77,11.81-18.64,15.12c1.93,1.52,3.49,3.21,4.66,5.07
					c1.17,1.86,2.45,4.45,3.83,7.77l15.74,36.04h-34.8l-14.91-33.97c-1.24-2.9-2.83-5-4.76-6.32c-1.94-1.31-4.7-1.97-8.29-1.97
					h-15.33v42.26H751.07z M784.42,111.76h24.65c6.49,0,11.56-1.62,15.23-4.87c3.66-3.24,5.49-8.18,5.49-14.81
					c0-13.39-6.42-20.09-19.26-20.09h-26.1V111.76z"/>
				<path fill="#009F83" d="M923.21,181.77c-8.84,0-17.09-0.66-24.75-1.97c-7.66-1.31-14.26-3.21-19.78-5.7v-28.38
					c6.07,2.62,12.81,4.76,20.2,6.42c7.39,1.66,14.4,2.49,21.03,2.49c8.29,0,14.46-0.76,18.54-2.28c4.07-1.52,6.11-4.83,6.11-9.94
					c0-3.45-1-6.22-3-8.29c-2-2.07-5.25-3.9-9.74-5.49c-4.49-1.59-10.6-3.49-18.33-5.7c-9.11-2.76-16.36-5.83-21.75-9.22
					c-5.39-3.38-9.25-7.49-11.6-12.33c-2.35-4.83-3.52-10.77-3.52-17.82c0-12.7,4.56-22.44,13.67-29.21
					c9.11-6.76,22.58-10.15,40.39-10.15c7.73,0,15.26,0.59,22.58,1.76c7.32,1.17,13.26,2.52,17.82,4.04v28.59
					c-5.94-2.35-11.91-4.07-17.92-5.18c-6.01-1.1-11.84-1.66-17.5-1.66c-7.46,0-13.5,0.69-18.13,2.07
					c-4.63,1.38-6.94,4.56-6.94,9.53c0,2.9,0.83,5.21,2.49,6.94c1.66,1.73,4.52,3.28,8.6,4.66c4.07,1.38,9.63,3.04,16.68,4.97
					c10.91,2.9,19.26,6.39,25.06,10.46c5.8,4.08,9.8,8.77,12.01,14.09c2.21,5.32,3.31,11.29,3.31,17.92
					c0,11.74-4.56,21.23-13.67,28.48C955.94,178.15,941.99,181.77,923.21,181.77z"/>
				<path fill="#009F83" d="M1025.75,179.7v-49.09L977.9,46.3h34.8l29.83,55.31l29.83-55.31h34.8l-47.85,84.31v49.09H1025.75z"/>
			</g>
		</g>
		<g>
			<g>
				<linearGradient id="SVGID_1_" gradientUnits="userSpaceOnUse" x1="153.6423" y1="26.8595" x2="22.124" y2="164.9953">
					<stop  offset="0" style="stop-color:#33B9A1"/>
					<stop  offset="0.2099" style="stop-color:#25B299"/>
					<stop  offset="0.7082" style="stop-color:#0AA489"/>
					<stop  offset="1" style="stop-color:#009F83"/>
				</linearGradient>
				<path fill-rule="evenodd" clip-rule="evenodd" fill="url(#SVGID_1_)" d="M144.04,53.85c8.99-8.56,19.57-15.46,31.29-20.14
					c-16.07-11.68-35.87-18.58-57.28-18.58c-53.97,0-97.72,43.81-97.72,97.87c0,26.28,10.32,50.12,27.16,67.71
					c8.16,8.53,17.82,15.56,28.59,20.68c-11.75-6.3-21.76-15.46-29.1-26.57c-4.13-6.27-7.4-13.14-9.66-20.46l0,0
					c-0.35-1.81-0.64-3.69-0.86-5.54c-0.38-3.21-0.57-6.43-0.57-9.74c0-36.78,24.72-67.77,58.42-77.22
					c-9.66,3.95-18.36,9.7-25.73,16.9c-14.9,14.54-24.18,34.91-24.18,57.4c0,4.8,0.44,9.48,1.24,14.03
					c6.64,5.06,14.93,8.05,23.92,8.05c11.6,0,22.02-5,29.26-12.92c2.22-2.8,4.26-5.73,6.1-8.78c4.57-7.61,7.91-16.07,9.75-25.04
					c0.25-2,0.57-3.98,0.95-5.92c3.27-16.51,10.67-31.56,21.09-43.94C139.05,58.91,141.46,56.33,144.04,53.85L144.04,53.85z"/>
				<g>
					<linearGradient id="SVGID_2_" gradientUnits="userSpaceOnUse" x1="99.7366" y1="238.8015" x2="243.5381" y2="106.7867">
						<stop  offset="0" style="stop-color:#262262"/>
						<stop  offset="1" style="stop-color:#1C75BC"/>
					</linearGradient>
					<path fill-rule="evenodd" clip-rule="evenodd" fill="url(#SVGID_2_)" d="M215.32,122.36c-1.75,7.89-2.32,9.39-6.35,20.33
						c-0.32,2.2-0.32,2.2-0.67,4.33c0.35,0.86,0.57,1.37,0.73,1.78C212.27,140.49,214.43,131.61,215.32,122.36L215.32,122.36z"/>
					<linearGradient id="SVGID_3_" gradientUnits="userSpaceOnUse" x1="108.1217" y1="247.9337" x2="251.9226" y2="115.9196">
						<stop  offset="0" style="stop-color:#262262"/>
						<stop  offset="1" style="stop-color:#1C75BC"/>
					</linearGradient>
					<path fill-rule="evenodd" clip-rule="evenodd" fill="url(#SVGID_3_)" d="M206.21,151.37c-1.21,1.02-1.21,1.02-2.54,2.1
						c-7.75,12.66-7.75,12.66-16.68,24.5c-0.51,1.62-0.51,1.62-1.02,3.15c1.02,0.13,1.59,0.19,2.03,0.22
						c7.91-8.15,14.42-17.66,19.16-28.16C207,152.81,206.71,152.26,206.21,151.37L206.21,151.37z"/>
					<linearGradient id="SVGID_4_" gradientUnits="userSpaceOnUse" x1="110.362" y1="250.376" x2="254.1643" y2="118.3606">
						<stop  offset="0" style="stop-color:#262262"/>
						<stop  offset="1" style="stop-color:#1C75BC"/>
					</linearGradient>
					<path fill-rule="evenodd" clip-rule="evenodd" fill="url(#SVGID_4_)" d="M182.7,184.66c-1.84,1.11-1.84,1.11-3.78,2.23
						c-8.74,7.83-9.88,8.85-16.68,13.43c8.2-4.17,15.69-9.45,22.33-15.62C184.16,184.72,183.59,184.69,182.7,184.66L182.7,184.66z"
						/>
					<linearGradient id="SVGID_5_" gradientUnits="userSpaceOnUse" x1="69.1357" y1="205.4626" x2="212.9347" y2="73.4502">
						<stop  offset="0" style="stop-color:#262262"/>
						<stop  offset="1" style="stop-color:#1C75BC"/>
					</linearGradient>
					<path fill-rule="evenodd" clip-rule="evenodd" fill="url(#SVGID_5_)" d="M191.53,70.08c0.86,2.74,0.86,2.74,1.65,5.35
						c14.68,16.7,14.9,16.93,22.37,31.05c-1.27-19.5-8.26-37.48-19.32-52.21c-0.16-0.1-0.35-0.19-0.6-0.35
						C194.74,60.66,194.74,60.66,191.53,70.08L191.53,70.08z"/>
					<linearGradient id="SVGID_6_" gradientUnits="userSpaceOnUse" x1="80.3842" y1="217.7238" x2="224.1876" y2="85.7073">
						<stop  offset="0" style="stop-color:#262262"/>
						<stop  offset="1" style="stop-color:#1C75BC"/>
					</linearGradient>
					<path fill-rule="evenodd" clip-rule="evenodd" fill="url(#SVGID_6_)" d="M215.45,110.93C207,96.33,207,96.33,191.53,79.5
						c-2.13,0.13-2.13,0.13-4.29,0.38c-6.93,13.33-6.93,13.33-15.41,28.19l1.08,6.36c19.32,15.81,19.32,15.81,31.96,28.06
						c1.43-0.89,1.43-0.89,2.76-1.84c5.02-12.95,5.02-12.95,8-25.1C215.58,113.19,215.58,113.19,215.45,110.93L215.45,110.93z"/>
					<linearGradient id="SVGID_7_" gradientUnits="userSpaceOnUse" x1="89.1483" y1="227.267" x2="232.9492" y2="95.2528">
						<stop  offset="0" style="stop-color:#262262"/>
						<stop  offset="1" style="stop-color:#1C75BC"/>
					</linearGradient>
					<path fill-rule="evenodd" clip-rule="evenodd" fill="url(#SVGID_7_)" d="M202.49,147.08c-13.09-11.84-13.09-11.84-32.85-27.27
						l-5.91,1.34c-10.48,15.88-10.48,15.88-21.41,31.44l0.95,6.01c21.57,12.76,21.57,12.76,37.36,20.65
						c2.13-1.08,2.13-1.08,4.19-2.16c9.15-12.28,9.15-12.28,17.19-25.3C202.27,149.46,202.27,149.46,202.49,147.08L202.49,147.08z"
						/>
					<linearGradient id="SVGID_8_" gradientUnits="userSpaceOnUse" x1="93.475" y1="231.9812" x2="237.2781" y2="99.965">
						<stop  offset="0" style="stop-color:#262262"/>
						<stop  offset="1" style="stop-color:#1C75BC"/>
					</linearGradient>
					<path fill-rule="evenodd" clip-rule="evenodd" fill="url(#SVGID_8_)" d="M177.23,183.13c-16.01-7.29-16.01-7.29-37.77-19.5
						c-3.21,0.67-3.21,0.67-6.36,1.3c-10.71,13.36-10.71,13.36-20.59,24.69c0.54,2.1,0.54,2.1,1.14,4.1
						c21.38,8.3,21.38,8.3,38.06,10.85c2.22-0.73,2.22-0.73,4.42-1.53c10.23-7.26,10.23-7.26,20.4-16.67
						C176.92,184.78,176.92,184.78,177.23,183.13L177.23,183.13z"/>
					<linearGradient id="SVGID_9_" gradientUnits="userSpaceOnUse" x1="92.7642" y1="231.2072" x2="236.5677" y2="99.1906">
						<stop  offset="0" style="stop-color:#262262"/>
						<stop  offset="1" style="stop-color:#1C75BC"/>
					</linearGradient>
					<path fill-rule="evenodd" clip-rule="evenodd" fill="url(#SVGID_9_)" d="M147.66,206.29c-15.92-1.81-16.2-1.91-37.11-9.51
						c-2.73,0.22-2.73,0.22-5.56,0.41c-7.59,6.43-7.59,6.43-13.53,9.74c0.25,0.19,0.45,0.32,0.57,0.45c8.29,2.29,17,3.5,26.02,3.5
						C128.37,210.87,138.32,209.28,147.66,206.29L147.66,206.29z"/>
					<linearGradient id="SVGID_10_" gradientUnits="userSpaceOnUse" x1="57.4769" y1="192.7692" x2="201.2807" y2="60.7524">
						<stop  offset="0" style="stop-color:#262262"/>
						<stop  offset="1" style="stop-color:#1C75BC"/>
					</linearGradient>
					<path fill-rule="evenodd" clip-rule="evenodd" fill="url(#SVGID_10_)" d="M50.29,172.63c6.99,10.56,16.52,19.28,27.67,25.3
						l3.4,1.81c0,0,7.91,2.86,9.34,3.02c2.57-1.75,4.03-3.12,9.34-8.02c-0.76-1.94-0.76-1.94-1.49-3.98
						c-23.64-14.38-23.64-14.38-45.59-31.09c-2.16,0.06-2.16,0.06-4.26,0.1c-1.05,2.7-1.78,4.61-2.35,6.14
						C47.55,168.24,48.86,170.46,50.29,172.63L50.29,172.63z"/>
					<linearGradient id="SVGID_11_" gradientUnits="userSpaceOnUse" x1="60.9041" y1="196.5012" x2="204.7047" y2="64.4873">
						<stop  offset="0" style="stop-color:#262262"/>
						<stop  offset="1" style="stop-color:#1C75BC"/>
					</linearGradient>
					<path fill-rule="evenodd" clip-rule="evenodd" fill="url(#SVGID_11_)" d="M62.83,161.68c15.03,11.26,17.79,12.98,38.57,25.77
						c2.99-0.25,2.99-0.25,5.94-0.54c9.75-11.61,9.75-11.61,20.33-25.23l-1.08-6.01c-9.47-6.21-15.47-10.15-20.52-13.52
						c-1.3,1.94-2.67,3.82-4.13,5.66l-0.1,0.1l-0.1,0.1c-8.29,9.07-19.89,14.19-32.18,14.19C67.28,162.19,65.06,162.03,62.83,161.68
						L62.83,161.68z"/>
					<linearGradient id="SVGID_12_" gradientUnits="userSpaceOnUse" x1="54.2063" y1="189.2066" x2="198.0091" y2="57.1907">
						<stop  offset="0" style="stop-color:#262262"/>
						<stop  offset="1" style="stop-color:#1C75BC"/>
					</linearGradient>
					<path fill-rule="evenodd" clip-rule="evenodd" fill="url(#SVGID_12_)" d="M109.47,136.61c5.15,3.44,11.21,7.48,20.87,13.87
						c3.27-0.64,3.27-0.64,6.58-1.34c11.02-15.75,11.02-15.75,21.63-31.79l-1.17-6.59c-17.06-12-22.71-16-32.34-22.46
						c-2.45,5.79-4.29,11.84-5.5,18.04c-0.38,1.88-0.7,3.79-0.95,5.66l-0.03,0.16v0.13C116.81,120.83,113.73,129.04,109.47,136.61
						L109.47,136.61z"/>
					<linearGradient id="SVGID_13_" gradientUnits="userSpaceOnUse" x1="46.9582" y1="181.3111" x2="190.761" y2="49.2952">
						<stop  offset="0" style="stop-color:#262262"/>
						<stop  offset="1" style="stop-color:#1C75BC"/>
					</linearGradient>
					<path fill-rule="evenodd" clip-rule="evenodd" fill="url(#SVGID_13_)" d="M127.77,82.36c10.17,6.78,15.6,10.63,33.07,23
						c3.02-0.57,3.02-0.57,5.97-1.11c8.77-14.89,8.77-14.89,16.01-28.22c-0.79-2.86-0.79-2.86-1.59-5.66
						c-14.17-10.69-19.41-14.67-27.32-19.82c-2.48,1.94-4.86,4.01-7.15,6.21c-2.45,2.35-4.8,4.84-6.99,7.44
						C135.08,69.79,131.04,75.87,127.77,82.36L127.77,82.36z"/>
					<linearGradient id="SVGID_14_" gradientUnits="userSpaceOnUse" x1="42.5132" y1="176.4668" x2="186.3141" y2="44.4527">
						<stop  offset="0" style="stop-color:#262262"/>
						<stop  offset="1" style="stop-color:#1C75BC"/>
					</linearGradient>
					<path fill-rule="evenodd" clip-rule="evenodd" fill="url(#SVGID_14_)" d="M157.73,47.74c7.12,4.65,12.39,8.69,25.48,18.68
						c2.16-0.06,2.16-0.06,4.26-0.06c3.62-9.32,3.62-9.32,4.92-15.94c-1.11-1.75-1.11-1.75-2.26-3.47
						c-5.43-4.46-9.15-7.51-12.29-9.96l-1.02,0.41C170.05,40.1,163.67,43.57,157.73,47.74L157.73,47.74z"/>
				</g>
			</g>
		</g>
	</g>
</g>
</svg>
