<svg xmlns="http://www.w3.org/2000/svg" viewBox="0 0 333.39 109.76"><defs><style>.cls-1{isolation:isolate;}.cls-2,.cls-3,.cls-4,.cls-6,.cls-7,.cls-9{fill:#e88d21;}.cls-3,.cls-4{mix-blend-mode:overlay;}.cls-3{opacity:0.8;}.cls-5{opacity:0.61;}.cls-6{opacity:0.4;}.cls-7{mix-blend-mode:multiply;opacity:0.7;}.cls-8,.cls-9{fill-rule:evenodd;}</style></defs><g class="cls-1"><g id="Layer_1" data-name="Layer 1"><path class="cls-2" d="M173.82,79.9h6.46c3.77,0,6.47.73,8.12,2.21a7.21,7.21,0,0,1,2.48,5.63,6.76,6.76,0,0,1-3.61,5.94,6,6,0,0,1,4.09,6.14,7.44,7.44,0,0,1-2.54,5.86,9.79,9.79,0,0,1-6.69,2.22h-8.31Zm6.36,5.37v6q4.26-.11,4.26-3a2.63,2.63,0,0,0-1-2.37A6.17,6.17,0,0,0,180.18,85.27Zm0,11.11v6.07a7.64,7.64,0,0,0,3.62-.75,2.48,2.48,0,0,0,1.2-2.32q0-3-4.3-3Z"/><path class="cls-2" d="M193,79.9h6.52V99.61a3.15,3.15,0,0,0,.74,2.2,2.81,2.81,0,0,0,4-.06,3.47,3.47,0,0,0,.75-2.37V79.9h6.48V98.27a15.23,15.23,0,0,1-1,6,6.68,6.68,0,0,1-2.9,3.33,11.29,11.29,0,0,1-5.36,1.06c-3.39,0-5.77-.87-7.16-2.6S193,101.41,193,97.29Z"/><path class="cls-2" d="M215.26,79.9h6.35v28h-6.35Z"/><path class="cls-2" d="M225.63,79.9H232v21.52h5v6.48H225.63Z"/><path class="cls-2" d="M239.13,79.9h5.94q6.17,0,9.38,3.51t3.2,10.27a18.36,18.36,0,0,1-1.58,8.26,9.81,9.81,0,0,1-4.43,4.56,14,14,0,0,1-6.28,1.4h-6.23Zm6.36,5.95v16.07a5.14,5.14,0,0,0,4.09-2c.8-1.2,1.19-3.17,1.19-5.91a17.36,17.36,0,0,0-.42-4.12,6,6,0,0,0-1.24-2.6,3.53,3.53,0,0,0-1.62-1.12A9.69,9.69,0,0,0,245.49,85.85Z"/><path class="cls-2" d="M260,79.9h6.36v28H260Z"/><path class="cls-2" d="M270.35,79.9h6.42l8.07,16.15-.23-3V79.9H291v28h-6.52L276.54,92l.16,3.48V107.9h-6.35Z"/><path class="cls-2" d="M314.06,92.21v4.7c0,3.64-.88,6.49-2.64,8.57a8.93,8.93,0,0,1-7.2,3.11,9.17,9.17,0,0,1-7.91-3.85q-2.79-3.84-2.79-11t2.78-10.92q2.77-3.72,8.13-3.72,6,0,8.68,6.4L307.05,88a8.51,8.51,0,0,0-1.41-2,2.47,2.47,0,0,0-1.78-.62,2.81,2.81,0,0,0-2.74,2,19.16,19.16,0,0,0-.8,6.55,15.69,15.69,0,0,0,.91,6.2,3,3,0,0,0,2.9,2c2.13,0,3.23-1.51,3.3-4.55h-3V92.21Z"/><path class="cls-2" d="M316.54,107.38v-6.53a10.65,10.65,0,0,0,5.08,1.76,2.62,2.62,0,0,0,1.89-.66,2.3,2.3,0,0,0,.69-1.75,2.56,2.56,0,0,0-.56-1.57,10.51,10.51,0,0,0-1.92-1.78A22.09,22.09,0,0,1,317,92.16a8.45,8.45,0,0,1-1.48-4.84,7.85,7.85,0,0,1,8.2-8.2A13.2,13.2,0,0,1,329,80.27v6.28A10.26,10.26,0,0,0,324.41,85a2.83,2.83,0,0,0-1.86.58,2,2,0,0,0-.68,1.58q0,1.77,3.17,4a19.54,19.54,0,0,1,3.83,3.66,8.35,8.35,0,0,1,1.94,5.46,7.89,7.89,0,0,1-2.54,6,9,9,0,0,1-6.44,2.39A12.11,12.11,0,0,1,316.54,107.38Z"/><path class="cls-2" d="M120.37,10.09H103.21V35.78a10.52,10.52,0,0,0,5.05,9l12.11,7.36Z"/><path class="cls-3" d="M118,10.09V47.63l-12.11-7.35a10.6,10.6,0,0,1-2.4-2,10.52,10.52,0,0,0,4.75,6.5l12.11,7.36v-42Z"/><path class="cls-2" d="M143.4,13.44,143,13l-.5-.22C142.83,13,143.11,13.22,143.4,13.44Z"/><path class="cls-4" d="M150.17,17.37a31.7,31.7,0,0,1,7,20.4c0,15.47-9.41,27.16-23.65,30.57a38,38,0,0,1-8.88,1H107.46a4.38,4.38,0,0,0-4.38,4v0h25.53a38,38,0,0,0,8.88-1c14.24-3.41,23.65-15.1,23.65-30.57C161.14,31.6,157,23,150.17,17.37Z"/><path class="cls-2" d="M137.43,11.11a38.37,38.37,0,0,0-5.27-.86l-1.32-.1c-.75,0-1.52-.06-2.29-.06H103v.06h0l.47.71a35.26,35.26,0,0,0,26.74,15.35h.07a24.61,24.61,0,0,1,12.22,44.46c11.36-4.76,18.61-15.47,18.61-29C161.08,26.21,151.67,14.53,137.43,11.11Z"/><path class="cls-2" d="M120.54,57.39a12.52,12.52,0,0,0-10.27,5.36L103,73.2h.13a1,1,0,0,0,0,.17h25.53a38,38,0,0,0,8.88-1c14.24-3.41,23.65-15.1,23.65-30.57,0-13.53-7.25-24.24-18.61-29a24.62,24.62,0,0,1-12.22,44.47,20,20,0,0,1-2.08.14Z"/><g class="cls-5"><path class="cls-2" d="M143.34,13.44,143,13l-.5-.22C142.77,13,143.06,13.22,143.34,13.44Z"/><path class="cls-3" d="M150.11,17.37a31.65,31.65,0,0,1,7,20.4c0,15.47-9.41,27.16-23.66,30.57a37.86,37.86,0,0,1-8.88,1H105.93c-.41,1.28-2.8,2.62-2.91,4h25.54a37.83,37.83,0,0,0,8.87-1c14.25-3.41,23.66-15.1,23.66-30.57C161.09,31.6,157,23,150.11,17.37Z"/></g><path class="cls-2" d="M225.18,10.56h0a7.64,7.64,0,0,1,4.54,9.79l-17.61,48a7.64,7.64,0,0,1-9.79,4.54h0a7.63,7.63,0,0,1-4.53-9.79l17.6-48A7.63,7.63,0,0,1,225.18,10.56Z"/><path class="cls-6" d="M212.11,68.37l2.1-5.72a8.59,8.59,0,0,0-.37-1.36l-7.69-21-8.36,22.82a7.49,7.49,0,0,0-.18,4.67,8.73,8.73,0,0,0,10.52,4.89A7.62,7.62,0,0,0,212.11,68.37Z"/><path class="cls-2" d="M184.73,10.56h0a7.63,7.63,0,0,0-4.54,9.79l17.6,48a7.64,7.64,0,0,0,9.79,4.54h0a7.63,7.63,0,0,0,4.54-9.79l-17.6-48A7.63,7.63,0,0,0,184.73,10.56Z"/><path class="cls-2" d="M177.6,22.19,162.67,62.91a7.78,7.78,0,0,0,4.12,9.86,7.64,7.64,0,0,0,10.14-4.4l7.89-21.55a7.06,7.06,0,0,0,0-4.92Z"/><path class="cls-2" d="M232.3,22.19l14.93,40.72a7.76,7.76,0,0,1-4.12,9.86A7.63,7.63,0,0,1,233,68.37l-7.9-21.55a7.17,7.17,0,0,1,0-4.92Z"/><path class="cls-2" d="M298.9,15.34c-3.68-7-12.52-7-16.2,0l-25,47.4-5.53,10.49H264a8.62,8.62,0,0,0,7.62-4.6l14.68-27.87a5,5,0,0,1,9.08,0l10.32,19.55L315,46.05Z"/><path class="cls-7" d="M309.82,36.24c1.49,7.56-9.27,8.39-13.16,7l3,5.54s7.35.11,9.82-4.67S309.82,36.24,309.82,36.24Z"/><path class="cls-2" d="M309.82,36.24c1.21,3.9-.65,9.7-11.73,9.7H275.66a7.15,7.15,0,0,0-6.23,3.49L264,58.89h25.23c32.27,0,40.7,15.08,40.7,15.08Z"/><path class="cls-7" d="M264,58.89s10.31.34,10.07,5l2.66-5Z"/><path class="cls-2" d="M103.07,107.2V80.52h16.35v5.85h-9.26V91h8.73v5.72h-8.73v4.5h9.26v6Z"/><path class="cls-2" d="M139.13,81.56v8a11,11,0,0,0-3-2.44A6.85,6.85,0,0,0,133,86.3a6.54,6.54,0,0,0-5.08,2.14A8,8,0,0,0,126,94a7.49,7.49,0,0,0,2,5.32,6.6,6.6,0,0,0,5,2.11,6.85,6.85,0,0,0,3.18-.77,11.06,11.06,0,0,0,3-2.45v8a17.51,17.51,0,0,1-3.44,1.26,14.58,14.58,0,0,1-3.47.42,15.06,15.06,0,0,1-4-.52,11.37,11.37,0,0,1-3.4-1.58,13.43,13.43,0,0,1-4.56-5,14.8,14.8,0,0,1-1.57-6.85,15,15,0,0,1,1-5.57,13.51,13.51,0,0,1,3-4.54,12.34,12.34,0,0,1,4.27-2.92,14,14,0,0,1,5.29-1,14.58,14.58,0,0,1,3.47.42A17.51,17.51,0,0,1,139.13,81.56Z"/><path class="cls-2" d="M166.56,93.92a13.68,13.68,0,0,1-1.06,5.39,13.54,13.54,0,0,1-3.08,4.5,14.55,14.55,0,0,1-4.66,3,14.62,14.62,0,0,1-10.93,0,14.08,14.08,0,0,1-4.6-3,13.49,13.49,0,0,1-3.12-4.52A13.7,13.7,0,0,1,142.23,84a14.06,14.06,0,0,1,4.6-3,14.57,14.57,0,0,1,11,0,14.08,14.08,0,0,1,4.63,3,13.57,13.57,0,0,1,4.14,9.9Zm-14.25,7.83a6.4,6.4,0,0,0,5-2.22,8.87,8.87,0,0,0,0-11.21,6.68,6.68,0,0,0-10,0,9,9,0,0,0,0,11.24A6.41,6.41,0,0,0,152.31,101.75Z"/><path class="cls-8" d="M94.43,9.53A1.44,1.44,0,0,0,93,8.11H81.58a1.07,1.07,0,0,0,.35-.82v-4a1.44,1.44,0,0,0-1.41-1.42H58.82a1.44,1.44,0,0,0-1.41,1.42V7.41a1.09,1.09,0,0,0,.35.82H48.45A1.43,1.43,0,0,0,47,9.65V28.86H36.9a1.07,1.07,0,0,0,.35-.82V23.91a1.44,1.44,0,0,0-1.41-1.42H14.14a1.44,1.44,0,0,0-1.41,1.42V28a1.07,1.07,0,0,0,.35.82H3.77a1.44,1.44,0,0,0-1.42,1.42V106.2a1.43,1.43,0,0,0,1.42,1.41H48.1c.11,0,.23.12.35.12H93.13a1.44,1.44,0,0,0,1.42-1.41V9.65c-.12,0-.12,0-.12-.12ZM59.88,8.23a2.18,2.18,0,0,0,.24-.82V4.58h19.1V7.41a1.09,1.09,0,0,0,.35.82ZM79.1,101.72a1.34,1.34,0,0,0-1.3-1.42H64.48a1.44,1.44,0,0,0-1.41,1.42v3.06H49.86V10.94h42v93.84H79.1ZM15.2,28.86a2.45,2.45,0,0,0,.36-.82V25.21h19.1V28a1,1,0,0,0,.35.82Zm19,72.86a1.34,1.34,0,0,0-1.29-1.42H19.57a1.44,1.44,0,0,0-1.42,1.42v3h-13V31.57h42v73.21h-13ZM21,103H31.59v1.65H21Zm44.8,0H76.39v1.76H65.78Z"/><path class="cls-9" d="M82.76,21a1.44,1.44,0,0,1-1.42,1.42H60A1.36,1.36,0,0,1,58.59,21,1.43,1.43,0,0,1,60,19.55H81.34A1.44,1.44,0,0,1,82.76,21Zm0,10.38a1.44,1.44,0,0,1-1.42,1.41H60a1.36,1.36,0,0,1-1.41-1.41A1.43,1.43,0,0,1,60,29.92H81.34A1.44,1.44,0,0,1,82.76,31.34ZM38.07,41.59A1.43,1.43,0,0,1,36.66,43H15.32a1.42,1.42,0,0,1,0-2.83H36.66A1.43,1.43,0,0,1,38.07,41.59Zm44.69.12a1.44,1.44,0,0,1-1.42,1.42H60a1.36,1.36,0,0,1-1.41-1.42A1.43,1.43,0,0,1,60,40.3H81.34A1.43,1.43,0,0,1,82.76,41.71ZM38.07,52a1.43,1.43,0,0,1-1.41,1.41H15.32a1.42,1.42,0,0,1,0-2.83H36.66A1.43,1.43,0,0,1,38.07,52Zm44.69.35a1.44,1.44,0,0,1-1.42,1.42H60a1.42,1.42,0,0,1,0-2.83H81.34A1.43,1.43,0,0,1,82.76,52.32Zm-44.69,10a1.43,1.43,0,0,1-1.41,1.42H15.32a1.42,1.42,0,0,1,0-2.83H36.66A1.43,1.43,0,0,1,38.07,62.34Zm44.69.47a1.44,1.44,0,0,1-1.42,1.42H60a1.36,1.36,0,0,1-1.41-1.42A1.43,1.43,0,0,1,60,61.4H81.34A1.44,1.44,0,0,1,82.76,62.81ZM38.07,73a1.43,1.43,0,0,1-1.41,1.42H15.32a1.42,1.42,0,0,1,0-2.83H36.66A1.43,1.43,0,0,1,38.07,73Zm44.69.48a1.44,1.44,0,0,1-1.42,1.41H60a1.36,1.36,0,0,1-1.41-1.41A1.43,1.43,0,0,1,60,72H81.34A1.44,1.44,0,0,1,82.76,73.43ZM38.07,83.56A1.43,1.43,0,0,1,36.66,85H15.32a1.52,1.52,0,0,1-1.41-1.42,1.43,1.43,0,0,1,1.41-1.41H36.66A1.43,1.43,0,0,1,38.07,83.56Zm44.69.24a1.44,1.44,0,0,1-1.42,1.41H60a1.36,1.36,0,0,1-1.41-1.41A1.43,1.43,0,0,1,60,82.38H81.34A1.44,1.44,0,0,1,82.76,83.8Zm-46.22,9A1.44,1.44,0,0,1,38,94.17a1.51,1.51,0,0,1-1.3,1.42H15.32a1.42,1.42,0,0,1,0-2.83Zm44.68,0a1.44,1.44,0,0,1,1.42,1.41,1.34,1.34,0,0,1-1.3,1.42H60a1.42,1.42,0,0,1,0-2.83Z"/></g></g></svg>