<svg xmlns="http://www.w3.org/2000/svg" xmlns:xlink="http://www.w3.org/1999/xlink" width="247.318" height="47.801" viewBox="0 0 247.318 47.801">
  <defs>
    <linearGradient id="linear-gradient" x1="0.666" y1="0.508" x2="0.052" y2="0.5" gradientUnits="objectBoundingBox">
      <stop offset="0" stop-color="#fff"/>
      <stop offset="1" stop-color="#fff" stop-opacity="0"/>
    </linearGradient>
  </defs>
  <g id="Group_2" data-name="Group 2" transform="translate(-611 -789.513)">
    <g id="energoteh" transform="translate(611 789.513)">
      <path id="Path_1" data-name="Path 1" d="M92.869,1.52l-3.54,17.9L85.313,1.52l-8.463.058-5,30.377h6.326L81.356,14.34l4.988,17.615h8.045L99.234,1.52Z" transform="translate(-25.609 -0.542)" fill="#fff"/>
      <path id="Path_2" data-name="Path 2" d="M122.792,20.134H132.8l.862-7.118-9.827-.058.669-4.087h12.608L138.1,1.29H118.358l-4.9,30.583h20.022l1.467-7.414H122.077Z" transform="translate(-40.44 -0.46)" fill="#fff"/>
      <path id="Path_3" data-name="Path 3" d="M314.643,20.134h10.014l1.178-7.176H315.647l.714-4.087h12.608L330.25,1.29H310.209L305.35,32.323h20.021l1.429-7.864H313.929Z" transform="translate(-108.836 -0.46)" fill="#fff"/>
      <path id="Path_4" data-name="Path 4" d="M361.478,1.29l-1.989,10.645h-8.045L353.111,1.29h-6.976L340.89,32.342l7.176-.019,2.253-11.539,7.916.058-1.751,11.481h7.137l5.2-31.033Z" transform="translate(-121.503 -0.46)" fill="#fff"/>
      <path id="Path_5" data-name="Path 5" d="M297.881,1.29h-20.9L275.62,9.47l6.835.032-3.649,22.634h6.97l3.932-22.705h6.867Z" transform="translate(-98.239 -0.46)" fill="#fff"/>
      <path id="Path_6" data-name="Path 6" d="M249.094.5C245.927.284,236.229.329,233.487,13.87c-3.771,18.638,9.119,18.142,9.119,18.142s13.174,1.2,16.018-15.722C261.09,1.635,252.26.708,249.094.5Zm1.339,16.881c-1.139,4.589-4.235,7.794-6.912,7.157s-3.919-4.872-2.78-9.46,4.235-7.794,6.912-7.157,3.919,4.872,2.78,9.46Z" transform="translate(-82.975 -0.161)" fill="#fff"/>
      <path id="Path_7" data-name="Path 7" d="M170.414,1.29h-16.25L148.97,31.866h7.111l1.39-9.19,6.365-.019c.965.032,1.023.631.978,1.274L163.65,31.84l8.07.026c-.405-3.179-.122-5.206.412-9.454s-1.339-4.994-1.339-4.994,4.428-1.538,4.428-8.341c0-7.259-3.746-7.787-4.8-7.787Zm-6,12.768h-5.361l.965-5.67h4.968s2.143.032,2.072,2.832a2.714,2.714,0,0,1-2.645,2.832Z" transform="translate(-53.097 -0.46)" fill="#fff"/>
      <path id="Path_8" data-name="Path 8" d="M205.875,0C194.22,0,190.9,12.929,190.359,15.935c-.6,3.3-3.005,15.478,9.583,15.478,8.753,0,8.012-3.1,9-3.128.3-.006.528.006.528.006l.026,2.652H212.5l3.063-16.611H205.161l-1.429,6.648h3.578s-1.216,4.325-5.329,4.222-4.756-4.756-3.823-8.617,2.9-9.042,6.719-9.042,3.038,3.681,3.038,3.681h8.006S217.53,0,205.875,0Z" transform="translate(-67.643)" fill="#fff"/>
      <path id="Path_9" data-name="Path 9" d="M32.764,20.321l10.02-.006.882-7.1-9.583-.142.4-3.617L47.1,9.471l1-7.691H21.759V3.434H28.1l-.714,4.428H19.269v1.66H27.12l-.6,3.765H14.944v1.654h11.3l-.6,3.765H8.939v1.66H25.376l-.708,4.408H0v1.654H24.4l-.637,3.958H3.8v1.66H43.518l1.435-7.671H32.082Z" transform="translate(0 -0.634)" fill="#fff"/>
    </g>
    <path id="Path_11" data-name="Path 11" d="M-3.45,0H214.971l-2.55,14.023H-6Z" transform="translate(637.822 823.29)" fill="url(#linear-gradient)"/>
    <path id="Path_12" data-name="Path 12" d="M4.478-49.758h2.4L7.3-52.93h4.223c1.7,0,2.1-.051,2.4-1.465l.505-2.479c.219-1.19-.209-1.526-1.908-1.526H5.753Zm3-4.721.363-2.371h4.1c.268,0,.309.124.241.48l-.426,1.66c-.05.22-.089.235-.358.235Zm15.566,1.728c1.562,0,1.251-.936,2.16-4.43.146-.658-.093-1.218-1.292-1.218H16.95l-1.275,8.642h2.389l.425-2.9h1.836l2.075,2.9h2.773ZM18.676-54.16l.425-2.714h3.6c.268,0,.286.122.2.408l-.5,2.071c-.069.181-.089.235-.358.235Zm10.826,4.4h4.6c1.7,0,2.292-.5,2.5-1.643l1.275-5.355c.212-1.139-.8-1.643-2.5-1.643h-4.6c-1.7,0-2.3.512-2.5,1.643L27-51.4C26.8-50.264,27.8-49.758,29.5-49.758Zm.429-1.549c-.268,0-.358-.059-.358-.235l1.275-5.073c0-.176.089-.235.358-.235h3.738c.268,0,.358.059.358.235l-1.275,5.073c0,.176-.089.235-.358.235Zm9.194,1.549H41.7L43.4-58.4H40.826Zm4.977,0h8.85l.425-1.549H46.991L47.3-53.2h4.546l.425-1.526h-4.74l.387-1.892H54.19l.463-1.784H45.8Zm13.179,0h4.15c1.7,0,2.2-.59,2.5-1.643l.425-1.338H61.785l-.425,1.2c0,.176-.089.235-.358.235H57.711c-.268,0-.358-.059-.358-.235l1.275-5.073c0-.176.089-.235.358-.235h3.291c.268,0,.358.059.358.235l-.425,1.622h2.576l.425-1.763c0-1.115-.8-1.643-2.5-1.643h-4.15c-1.7,0-2.223.512-2.5,1.643L54.778-51.4C54.778-50.286,55.583-49.758,57.282-49.758Zm11.233,0h2.576l1.275-7.116h3.6l.223-1.526H66.816l-.223,1.526h3.2Z" transform="translate(772.454 884.381)"/>
  </g>
</svg>
